<svg width="24" height="24" viewBox="0 0 24 24" fill="none" xmlns="http://www.w3.org/2000/svg">
<path opacity="0.2" d="M21 3.25L12 11.5L3 3.25H21Z" fill="#0E2E4D"/>
<path d="M21 2.5H3C2.80109 2.5 2.61032 2.57902 2.46967 2.71967C2.32902 2.86032 2.25 3.05109 2.25 3.25V16C2.25 16.3978 2.40804 16.7794 2.68934 17.0607C2.97064 17.342 3.35218 17.5 3.75 17.5H20.25C20.6478 17.5 21.0294 17.342 21.3107 17.0607C21.592 16.7794 21.75 16.3978 21.75 16V3.25C21.75 3.05109 21.671 2.86032 21.5303 2.71967C21.3897 2.57902 21.1989 2.5 21 2.5ZM12 10.4828L4.92844 4H19.0716L12 10.4828ZM9.25406 10L3.75 15.0447V4.95531L9.25406 10ZM10.3641 11.0172L11.4891 12.0531C11.6274 12.1801 11.8084 12.2506 11.9963 12.2506C12.1841 12.2506 12.3651 12.1801 12.5034 12.0531L13.6284 11.0172L19.0659 16H4.92844L10.3641 11.0172ZM14.7459 10L20.25 4.95438V15.0456L14.7459 10Z" fill="#0E2E4D"/>
</svg>
