<svg width="24" height="24" viewBox="0 0 24 24" fill="none" xmlns="http://www.w3.org/2000/svg">
<path opacity="0.2" d="M21 10C21 11.78 20.4722 13.5201 19.4832 15.0001C18.4943 16.4802 17.0887 17.6337 15.4442 18.3149C13.7996 18.9961 11.99 19.1743 10.2442 18.8271C8.49836 18.4798 6.89472 17.6226 5.63604 16.364C4.37737 15.1053 3.5202 13.5016 3.17294 11.7558C2.82567 10.01 3.0039 8.20038 3.68509 6.55585C4.36628 4.91131 5.51983 3.50571 6.99987 2.51677C8.47991 1.52784 10.22 1 12 1C14.387 1 16.6761 1.94821 18.364 3.63604C20.0518 5.32387 21 7.61305 21 10Z" fill="#0E2E4D"/>
<path d="M12 0.25C10.0716 0.25 8.18657 0.821828 6.58319 1.89317C4.97982 2.96451 3.73013 4.48726 2.99218 6.26884C2.25422 8.05042 2.06114 10.0108 2.43735 11.9021C2.81355 13.7934 3.74215 15.5307 5.10571 16.8943C6.46928 18.2579 8.20656 19.1865 10.0979 19.5627C11.9892 19.9389 13.9496 19.7458 15.7312 19.0078C17.5127 18.2699 19.0355 17.0202 20.1068 15.4168C21.1782 13.8134 21.75 11.9284 21.75 10C21.7473 7.41498 20.7192 4.93661 18.8913 3.10872C17.0634 1.28084 14.585 0.25273 12 0.25ZM20.2153 9.25H16.4813C16.3491 6.58187 15.5184 4.04969 14.1263 2.03125C15.7568 2.469 17.2142 3.39535 18.3027 4.68582C19.3912 5.97629 20.0587 7.56903 20.2153 9.25ZM9.02157 10.75H14.9784C14.8209 13.6441 13.7597 16.3394 12 18.2397C10.2441 16.3394 9.17907 13.6441 9.02157 10.75ZM9.02157 9.25C9.17907 6.35594 10.2403 3.66062 12 1.76031C13.7559 3.66062 14.8209 6.35406 14.9784 9.25H9.02157ZM9.87375 2.03125C8.48157 4.04969 7.65094 6.58187 7.51875 9.25H3.78469C3.94133 7.56903 4.60876 5.97629 5.69728 4.68582C6.7858 3.39535 8.24325 2.469 9.87375 2.03125ZM3.78469 10.75H7.51875C7.65094 13.4181 8.48157 15.9503 9.87375 17.9688C8.24325 17.531 6.7858 16.6046 5.69728 15.3142C4.60876 14.0237 3.94133 12.431 3.78469 10.75ZM14.1263 17.9688C15.5184 15.9475 16.3491 13.4153 16.4813 10.75H20.2153C20.0587 12.431 19.3912 14.0237 18.3027 15.3142C17.2142 16.6046 15.7568 17.531 14.1263 17.9688Z" fill="#0E2E4D"/>
</svg>
