<svg width="15" height="15" viewBox="0 0 15 15" fill="none" xmlns="http://www.w3.org/2000/svg">
<path d="M8.1854 0.833984C8.93566 0.835224 9.31586 0.839191 9.6444 0.848971L9.7738 0.853204C9.92326 0.858518 10.0707 0.865184 10.2485 0.873518C10.9579 0.906291 11.4419 1.01852 11.8669 1.18352C12.3063 1.35296 12.6774 1.58185 13.0479 1.9524C13.4179 2.32296 13.6469 2.69518 13.8169 3.13352C13.9813 3.55796 14.0935 4.0424 14.1269 4.75185C14.1348 4.92962 14.1412 5.07709 14.1465 5.22659L14.1507 5.35598C14.1604 5.68448 14.1649 6.06473 14.1663 6.815L14.1668 7.31213C14.1669 7.37286 14.1669 7.43553 14.1669 7.5002L14.1668 7.68826L14.1664 8.1854C14.1651 8.93566 14.1612 9.31586 14.1514 9.6444L14.1471 9.7738C14.1419 9.92326 14.1352 10.0707 14.1269 10.2485C14.0941 10.9579 13.9813 11.4419 13.8169 11.8669C13.6474 12.3063 13.4179 12.6774 13.0479 13.0479C12.6774 13.4179 12.3046 13.6469 11.8669 13.8169C11.4419 13.9813 10.9579 14.0935 10.2485 14.1269C10.0707 14.1348 9.92326 14.1412 9.7738 14.1465L9.6444 14.1507C9.31586 14.1604 8.93566 14.1649 8.1854 14.1663L7.68826 14.1668C7.62753 14.1669 7.56486 14.1669 7.5002 14.1669L7.31213 14.1668L6.815 14.1664C6.06473 14.1651 5.68448 14.1612 5.35598 14.1514L5.22659 14.1471C5.07709 14.1419 4.92962 14.1352 4.75185 14.1269C4.0424 14.0941 3.55907 13.9813 3.13352 13.8169C2.69462 13.6474 2.32296 13.4179 1.9524 13.0479C1.58185 12.6774 1.35352 12.3046 1.18352 11.8669C1.01852 11.4419 0.906851 10.9579 0.873518 10.2485C0.865598 10.0707 0.859138 9.92326 0.853904 9.7738L0.849711 9.6444C0.839958 9.31586 0.835511 8.93566 0.834071 8.1854L0.833984 6.815C0.835224 6.06473 0.839191 5.68448 0.848971 5.35598L0.853204 5.22659C0.858518 5.07709 0.865184 4.92962 0.873518 4.75185C0.906291 4.04185 1.01852 3.55852 1.18352 3.13352C1.35296 2.69462 1.58185 2.32296 1.9524 1.9524C2.32296 1.58185 2.69518 1.35352 3.13352 1.18352C3.55852 1.01852 4.04185 0.906851 4.75185 0.873518C4.92962 0.865598 5.07709 0.859138 5.22659 0.853904L5.35598 0.849711C5.68448 0.839958 6.06473 0.835511 6.815 0.834071L8.1854 0.833984ZM7.5002 4.16685C5.65825 4.16685 4.16685 5.65987 4.16685 7.5002C4.16685 9.34213 5.65987 10.8335 7.5002 10.8335C9.34213 10.8335 10.8335 9.34046 10.8335 7.5002C10.8335 5.65825 9.34046 4.16685 7.5002 4.16685ZM7.5002 5.50018C8.6048 5.50018 9.5002 6.39526 9.5002 7.5002C9.5002 8.6048 8.60506 9.5002 7.5002 9.5002C6.3956 9.5002 5.50018 8.60506 5.50018 7.5002C5.50018 6.3956 6.39526 5.50018 7.5002 5.50018ZM11.0002 3.16685C10.5407 3.16685 10.1669 3.54012 10.1669 3.99962C10.1669 4.45911 10.5401 4.83296 11.0002 4.83296C11.4597 4.83296 11.8335 4.45969 11.8335 3.99962C11.8335 3.54012 11.4591 3.16627 11.0002 3.16685Z" fill="#fff"/>
</svg>
