<svg width="24" height="24" viewBox="0 0 24 24" fill="none" xmlns="http://www.w3.org/2000/svg">
<path opacity="0.2" d="M16.5 1H7.5C6.30653 1 5.16193 1.47411 4.31802 2.31802C3.47411 3.16193 3 4.30653 3 5.5V14.5C3 15.6935 3.47411 16.8381 4.31802 17.682C5.16193 18.5259 6.30653 19 7.5 19H16.5C17.6935 19 18.8381 18.5259 19.682 17.682C20.5259 16.8381 21 15.6935 21 14.5V5.5C21 4.30653 20.5259 3.16193 19.682 2.31802C18.8381 1.47411 17.6935 1 16.5 1ZM12 13.75C11.2583 13.75 10.5333 13.5301 9.91661 13.118C9.29993 12.706 8.81928 12.1203 8.53545 11.4351C8.25162 10.7498 8.17736 9.99584 8.32205 9.26841C8.46675 8.54098 8.8239 7.8728 9.34835 7.34835C9.8728 6.8239 10.541 6.46675 11.2684 6.32205C11.9958 6.17736 12.7498 6.25162 13.4351 6.53545C14.1203 6.81928 14.706 7.29993 15.118 7.91661C15.5301 8.5333 15.75 9.25832 15.75 10C15.75 10.9946 15.3549 11.9484 14.6517 12.6517C13.9484 13.3549 12.9946 13.75 12 13.75Z" fill="#0E2E4D"/>
<path d="M16.5 0.25H7.5C6.10807 0.251489 4.77358 0.805091 3.78933 1.78933C2.80509 2.77358 2.25149 4.10807 2.25 5.5V14.5C2.25149 15.8919 2.80509 17.2264 3.78933 18.2107C4.77358 19.1949 6.10807 19.7485 7.5 19.75H16.5C17.8919 19.7485 19.2264 19.1949 20.2107 18.2107C21.1949 17.2264 21.7485 15.8919 21.75 14.5V5.5C21.7485 4.10807 21.1949 2.77358 20.2107 1.78933C19.2264 0.805091 17.8919 0.251489 16.5 0.25ZM20.25 14.5C20.25 15.4946 19.8549 16.4484 19.1516 17.1516C18.4484 17.8549 17.4946 18.25 16.5 18.25H7.5C6.50544 18.25 5.55161 17.8549 4.84835 17.1516C4.14509 16.4484 3.75 15.4946 3.75 14.5V5.5C3.75 4.50544 4.14509 3.55161 4.84835 2.84835C5.55161 2.14509 6.50544 1.75 7.5 1.75H16.5C17.4946 1.75 18.4484 2.14509 19.1516 2.84835C19.8549 3.55161 20.25 4.50544 20.25 5.5V14.5ZM12 5.5C11.11 5.5 10.24 5.76392 9.49993 6.25839C8.75991 6.75285 8.18314 7.45566 7.84254 8.27792C7.50195 9.10019 7.41283 10.005 7.58647 10.8779C7.7601 11.7508 8.18868 12.5526 8.81802 13.182C9.44736 13.8113 10.2492 14.2399 11.1221 14.4135C11.995 14.5872 12.8998 14.4981 13.7221 14.1575C14.5443 13.8169 15.2471 13.2401 15.7416 12.5001C16.2361 11.76 16.5 10.89 16.5 10C16.4988 8.80691 16.0243 7.66303 15.1806 6.81939C14.337 5.97575 13.1931 5.50124 12 5.5ZM12 13C11.4067 13 10.8266 12.8241 10.3333 12.4944C9.83994 12.1648 9.45542 11.6962 9.22836 11.1481C9.0013 10.5999 8.94189 9.99667 9.05764 9.41473C9.1734 8.83279 9.45912 8.29824 9.87868 7.87868C10.2982 7.45912 10.8328 7.1734 11.4147 7.05764C11.9967 6.94189 12.5999 7.0013 13.1481 7.22836C13.6962 7.45542 14.1648 7.83994 14.4944 8.33329C14.8241 8.82664 15 9.40666 15 10C15 10.7956 14.6839 11.5587 14.1213 12.1213C13.5587 12.6839 12.7956 13 12 13ZM18 5.125C18 5.3475 17.934 5.56501 17.8104 5.75002C17.6868 5.93502 17.5111 6.07922 17.3055 6.16436C17.1 6.24951 16.8738 6.27179 16.6555 6.22838C16.4373 6.18498 16.2368 6.07783 16.0795 5.9205C15.9222 5.76316 15.815 5.56271 15.7716 5.34448C15.7282 5.12625 15.7505 4.90005 15.8356 4.69448C15.9208 4.48891 16.065 4.31321 16.25 4.1896C16.435 4.06598 16.6525 4 16.875 4C17.1734 4 17.4595 4.11853 17.6705 4.3295C17.8815 4.54048 18 4.82663 18 5.125Z" fill="#0E2E4D"/>
</svg>
