<svg width="186" height="140" viewBox="0 0 186 140" fill="none" xmlns="http://www.w3.org/2000/svg">
<g clip-path="url(#clip0_14_1322)">
<rect x="23" width="140" height="140" rx="70" fill="#F2F3F9"/>
<g clip-path="url(#clip1_14_1322)">
<rect x="45.8262" y="39.5652" width="94.3478" height="109.565" fill="white"/>
<rect x="59.522" y="88.2609" width="66.9565" height="7.6087" fill="#D4DEE8"/>
<rect x="64.0874" y="105" width="57.8261" height="7.6087" fill="#D4DEE8"/>
<rect x="74.7393" y="121.739" width="36.5217" height="7.6087" fill="#D4DEE8"/>
<path d="M103.997 70.3977L99.4849 74.9097C99.2855 75.1092 99.0149 75.2212 98.7329 75.2212C98.4508 75.2212 98.1803 75.1092 97.9809 74.9097L92.7168 69.6457L87.4527 74.9097C87.2533 75.1092 86.9828 75.2212 86.7007 75.2212C86.4186 75.2212 86.1481 75.1092 85.9487 74.9097L81.4366 70.3977C81.2372 70.1982 81.1251 69.9277 81.1251 69.6457C81.1251 69.3636 81.2372 69.0931 81.4366 68.8936L86.7007 63.6296L81.4366 58.3655C81.2372 58.166 81.1251 57.8955 81.1251 57.6135C81.1251 57.3314 81.2372 57.0609 81.4366 56.8615L85.9487 52.3494C86.1481 52.15 86.4186 52.0379 86.7007 52.0379C86.9828 52.0379 87.2533 52.15 87.4527 52.3494L92.7168 57.6135L97.9809 52.3494C98.1803 52.15 98.4508 52.0379 98.7329 52.0379C99.0149 52.0379 99.2855 52.15 99.4849 52.3494L103.997 56.8615C104.196 57.0609 104.308 57.3314 104.308 57.6135C104.308 57.8955 104.196 58.166 103.997 58.3655L98.7329 63.6296L103.997 68.8936C104.196 69.0931 104.308 69.3636 104.308 69.6457C104.308 69.9277 104.196 70.1982 103.997 70.3977Z" fill="#FE245A"/>
</g>
<rect x="46.587" y="40.3261" width="92.8261" height="108.043" stroke="#0E2E4D" stroke-width="1.52174"/>
</g>
<rect x="23.7609" y="0.76087" width="138.478" height="138.478" rx="69.2391" stroke="#0E2E4D" stroke-width="1.52174"/>
<circle cx="12.3477" cy="98.9131" r="6.08696" fill="#F2F3F9"/>
<circle cx="169.087" cy="6.08696" r="6.08696" fill="#F2F3F9"/>
<circle cx="13.1086" cy="12.9348" r="12.9348" fill="#F2F3F9"/>
<circle cx="172.891" cy="113.37" r="12.9348" fill="#F2F3F9"/>
<defs>
<clipPath id="clip0_14_1322">
<rect x="23" width="140" height="140" rx="70" fill="white"/>
</clipPath>
<clipPath id="clip1_14_1322">
<rect x="45.8262" y="39.5652" width="94.3478" height="109.565" fill="white"/>
</clipPath>
</defs>
</svg>
