<svg width="16" height="17" viewBox="0 0 16 17" fill="none" xmlns="http://www.w3.org/2000/svg">
<path d="M10.6667 5.99695V10.8334C10.6667 13.2266 8.7266 15.1667 6.33333 15.1667C3.9401 15.1667 2 13.2266 2 10.8334C2 8.44011 3.9401 6.50004 6.33333 6.50004C6.67753 6.50004 7.01233 6.54017 7.33333 6.61599V8.72457C7.03027 8.58057 6.6912 8.50004 6.33333 8.50004C5.04467 8.50004 4 9.54471 4 10.8334C4 12.122 5.04467 13.1667 6.33333 13.1667C7.622 13.1667 8.66667 12.122 8.66667 10.8334V1.83337H10.6667C10.6667 3.67432 12.1591 5.16671 14 5.16671V7.16671C12.7387 7.16671 11.5797 6.72889 10.6667 5.99695Z" fill="#0E2E4D"/>
</svg>
