<svg width="16" height="17" viewBox="0 0 16 17" fill="none" xmlns="http://www.w3.org/2000/svg">
<path d="M8.16227 3.1665C8.51834 3.16846 9.40921 3.17708 10.3557 3.21499L10.6913 3.22962C11.6443 3.27474 12.5965 3.35182 13.0688 3.4835C13.6987 3.66047 14.1939 4.17684 14.3612 4.83138C14.6277 5.87078 14.661 7.89944 14.6651 8.39037L14.6657 8.4921V8.49924C14.6657 8.49924 14.6657 8.5017 14.6657 8.50644L14.6651 8.60817C14.661 9.0991 14.6277 11.1278 14.3612 12.1672C14.1915 12.8241 13.6964 13.3405 13.0688 13.515C12.5965 13.6467 11.6443 13.7238 10.6913 13.7689L10.3557 13.7835C9.40921 13.8214 8.51834 13.83 8.16227 13.832L8.00601 13.8326H7.99907C7.99907 13.8326 7.99674 13.8326 7.99214 13.8326L7.83601 13.832C7.08241 13.8279 3.93149 13.7938 2.92935 13.515C2.29941 13.338 1.80429 12.8217 1.63692 12.1672C1.37047 11.1278 1.33717 9.0991 1.33301 8.60817V8.39037C1.33717 7.89944 1.37047 5.87078 1.63692 4.83138C1.80661 4.17441 2.30173 3.65805 2.92935 3.4835C3.93149 3.20466 7.08241 3.17065 7.83601 3.1665H8.16227ZM6.66575 6.16593V10.8326L10.6657 8.49924L6.66575 6.16593Z" fill="#fff"/>
</svg>
